<svg xmlns="http://www.w3.org/2000/svg" width="536" height="176" class="svgbob"><style>.svgbob line, .svgbob path, .svgbob circle, .svgbob rect, .svgbob polygon {
    stroke: black;
    stroke-width: 2;
    stroke-opacity: 1;
    fill-opacity: 1;
    stroke-linecap: round;
    stroke-linejoin: miter;
}
.svgbob text {
    white-space: pre;
    fill: black;
    font-family: Iosevka Fixed, monospace;
    font-size: 14px;
}
.svgbob rect.backdrop {
    stroke: none;
    fill: white;
}
.svgbob .broken {
    stroke-dasharray: 8;
}
.svgbob .filled {
    fill: black;
}
.svgbob .bg_filled {
    fill: white;
    stroke-width: 1;
}
.svgbob .nofill {
    fill: white;
}
.svgbob .end_marked_arrow {
    marker-end: url(#arrow);
}
.svgbob .start_marked_arrow {
    marker-start: url(#arrow);
}
.svgbob .end_marked_diamond {
    marker-end: url(#diamond);
}
.svgbob .start_marked_diamond {
    marker-start: url(#diamond);
}
.svgbob .end_marked_circle {
    marker-end: url(#circle);
}
.svgbob .start_marked_circle {
    marker-start: url(#circle);
}
.svgbob .end_marked_open_circle {
    marker-end: url(#open_circle);
}
.svgbob .start_marked_open_circle {
    marker-start: url(#open_circle);
}
.svgbob .end_marked_big_open_circle {
    marker-end: url(#big_open_circle);
}
.svgbob .start_marked_big_open_circle {
    marker-start: url(#big_open_circle);
}<!--separator--></style><defs><marker id="arrow" viewBox="-2 -2 8 8" refX="4" refY="2" markerWidth="7" markerHeight="7" orient="auto-start-reverse"><polygon points="0,0 0,4 4,2 0,0"></polygon></marker><marker id="diamond" viewBox="-2 -2 8 8" refX="4" refY="2" markerWidth="7" markerHeight="7" orient="auto-start-reverse"><polygon points="0,2 2,0 4,2 2,4 0,2"></polygon></marker><marker id="circle" viewBox="0 0 8 8" refX="4" refY="4" markerWidth="7" markerHeight="7" orient="auto-start-reverse"><circle cx="4" cy="4" r="2" class="filled"></circle></marker><marker id="open_circle" viewBox="0 0 8 8" refX="4" refY="4" markerWidth="7" markerHeight="7" orient="auto-start-reverse"><circle cx="4" cy="4" r="2" class="bg_filled"></circle></marker><marker id="big_open_circle" viewBox="0 0 8 8" refX="4" refY="4" markerWidth="7" markerHeight="7" orient="auto-start-reverse"><circle cx="4" cy="4" r="3" class="bg_filled"></circle></marker></defs><rect class="backdrop" x="0" y="0" width="536" height="176"></rect><rect x="24" y="24" width="8" height="8" class="solid filled" rx="0"></rect><rect x="32" y="16" width="8" height="16" class="solid filled" rx="0"></rect><rect x="40" y="16" width="8" height="16" class="solid filled" rx="0"></rect><rect x="48" y="16" width="8" height="16" class="solid filled" rx="0"></rect><rect x="56" y="16" width="8" height="16" class="solid filled" rx="0"></rect><rect x="64" y="16" width="8" height="16" class="solid filled" rx="0"></rect><rect x="72" y="16" width="8" height="16" class="solid filled" rx="0"></rect><rect x="80" y="16" width="8" height="16" class="solid filled" rx="0"></rect><rect x="88" y="16" width="8" height="16" class="solid filled" rx="0"></rect><rect x="16" y="32" width="8" height="16" class="solid filled" rx="0"></rect><rect x="24" y="32" width="8" height="16" class="solid filled" rx="0"></rect><rect x="32" y="32" width="8" height="16" class="solid filled" rx="0"></rect><rect x="72" y="32" width="8" height="16" class="solid filled" rx="0"></rect><rect x="80" y="32" width="8" height="16" class="solid filled" rx="0"></rect><rect x="88" y="32" width="8" height="16" class="solid filled" rx="0"></rect><rect x="16" y="48" width="8" height="16" class="solid filled" rx="0"></rect><rect x="24" y="48" width="8" height="16" class="solid filled" rx="0"></rect><rect x="32" y="48" width="8" height="16" class="solid filled" rx="0"></rect><rect x="72" y="48" width="8" height="16" class="solid filled" rx="0"></rect><rect x="80" y="48" width="8" height="16" class="solid filled" rx="0"></rect><rect x="88" y="48" width="8" height="16" class="solid filled" rx="0"></rect><rect x="16" y="64" width="8" height="16" class="solid filled" rx="0"></rect><rect x="24" y="64" width="8" height="16" class="solid filled" rx="0"></rect><rect x="32" y="64" width="8" height="16" class="solid filled" rx="0"></rect><rect x="72" y="64" width="8" height="16" class="solid filled" rx="0"></rect><rect x="80" y="64" width="8" height="16" class="solid filled" rx="0"></rect><rect x="88" y="64" width="8" height="16" class="solid filled" rx="0"></rect><text x="2" y="92" >▀</text><rect x="8" y="80" width="8" height="16" class="solid filled" rx="0"></rect><rect x="16" y="80" width="8" height="16" class="solid filled" rx="0"></rect><rect x="24" y="80" width="8" height="16" class="solid filled" rx="0"></rect><rect x="32" y="80" width="8" height="16" class="solid filled" rx="0"></rect><rect x="40" y="80" width="8" height="16" class="solid filled" rx="0"></rect><rect x="48" y="80" width="8" height="16" class="solid filled" rx="0"></rect><rect x="56" y="80" width="8" height="16" class="solid filled" rx="0"></rect><rect x="64" y="80" width="8" height="16" class="solid filled" rx="0"></rect><rect x="72" y="80" width="8" height="16" class="solid filled" rx="0"></rect><rect x="80" y="80" width="8" height="16" class="solid filled" rx="0"></rect><rect x="88" y="80" width="8" height="16" class="solid filled" rx="0"></rect><rect x="16" y="96" width="8" height="16" class="solid filled" rx="0"></rect><rect x="24" y="96" width="8" height="16" class="solid filled" rx="0"></rect><rect x="32" y="96" width="8" height="16" class="solid filled" rx="0"></rect><rect x="72" y="96" width="8" height="16" class="solid filled" rx="0"></rect><rect x="80" y="96" width="8" height="16" class="solid filled" rx="0"></rect><rect x="88" y="96" width="8" height="16" class="solid filled" rx="0"></rect><rect x="16" y="112" width="8" height="16" class="solid filled" rx="0"></rect><rect x="24" y="112" width="8" height="16" class="solid filled" rx="0"></rect><rect x="32" y="112" width="8" height="16" class="solid filled" rx="0"></rect><rect x="72" y="112" width="8" height="16" class="solid filled" rx="0"></rect><rect x="80" y="112" width="8" height="16" class="solid filled" rx="0"></rect><rect x="88" y="112" width="8" height="16" class="solid filled" rx="0"></rect><rect x="16" y="128" width="8" height="16" class="solid filled" rx="0"></rect><rect x="24" y="128" width="8" height="16" class="solid filled" rx="0"></rect><rect x="32" y="128" width="8" height="16" class="solid filled" rx="0"></rect><rect x="72" y="128" width="8" height="16" class="solid filled" rx="0"></rect><text x="82" y="140" >▀</text><rect x="112" y="24" width="8" height="8" class="solid filled" rx="0"></rect><rect x="120" y="16" width="8" height="16" class="solid filled" rx="0"></rect><rect x="104" y="32" width="8" height="16" class="solid filled" rx="0"></rect><rect x="112" y="32" width="8" height="16" class="solid filled" rx="0"></rect><rect x="120" y="32" width="8" height="16" class="solid filled" rx="0"></rect><rect x="104" y="48" width="8" height="16" class="solid filled" rx="0"></rect><rect x="112" y="48" width="8" height="16" class="solid filled" rx="0"></rect><rect x="120" y="48" width="8" height="16" class="solid filled" rx="0"></rect><text x="130" y="60" >▌</text><rect x="104" y="64" width="8" height="16" class="solid filled" rx="0"></rect><rect x="112" y="64" width="8" height="16" class="solid filled" rx="0"></rect><rect x="120" y="64" width="8" height="16" class="solid filled" rx="0"></rect><text x="130" y="76" >▌</text><rect x="104" y="80" width="8" height="16" class="solid filled" rx="0"></rect><rect x="112" y="80" width="8" height="16" class="solid filled" rx="0"></rect><rect x="120" y="80" width="8" height="16" class="solid filled" rx="0"></rect><text x="130" y="92" >▌</text><rect x="104" y="96" width="8" height="16" class="solid filled" rx="0"></rect><rect x="112" y="96" width="8" height="16" class="solid filled" rx="0"></rect><rect x="120" y="96" width="8" height="16" class="solid filled" rx="0"></rect><rect x="104" y="112" width="8" height="16" class="solid filled" rx="0"></rect><rect x="112" y="112" width="8" height="16" class="solid filled" rx="0"></rect><rect x="120" y="112" width="8" height="16" class="solid filled" rx="0"></rect><rect x="104" y="128" width="8" height="16" class="solid filled" rx="0"></rect><text x="114" y="140" >▀</text><rect x="168" y="24" width="8" height="8" class="solid filled" rx="0"></rect><rect x="176" y="16" width="8" height="16" class="solid filled" rx="0"></rect><rect x="184" y="16" width="8" height="16" class="solid filled" rx="0"></rect><rect x="192" y="16" width="8" height="16" class="solid filled" rx="0"></rect><rect x="200" y="16" width="8" height="16" class="solid filled" rx="0"></rect><rect x="208" y="16" width="8" height="16" class="solid filled" rx="0"></rect><rect x="216" y="16" width="8" height="16" class="solid filled" rx="0"></rect><rect x="224" y="16" width="8" height="16" class="solid filled" rx="0"></rect><rect x="232" y="16" width="8" height="16" class="solid filled" rx="0"></rect><rect x="160" y="32" width="8" height="16" class="solid filled" rx="0"></rect><rect x="168" y="32" width="8" height="16" class="solid filled" rx="0"></rect><rect x="176" y="32" width="8" height="16" class="solid filled" rx="0"></rect><rect x="216" y="32" width="8" height="16" class="solid filled" rx="0"></rect><rect x="224" y="32" width="8" height="16" class="solid filled" rx="0"></rect><rect x="232" y="32" width="8" height="16" class="solid filled" rx="0"></rect><rect x="160" y="48" width="8" height="16" class="solid filled" rx="0"></rect><rect x="168" y="48" width="8" height="16" class="solid filled" rx="0"></rect><rect x="176" y="48" width="8" height="16" class="solid filled" rx="0"></rect><rect x="216" y="48" width="8" height="16" class="solid filled" rx="0"></rect><rect x="224" y="48" width="8" height="16" class="solid filled" rx="0"></rect><rect x="232" y="48" width="8" height="16" class="solid filled" rx="0"></rect><rect x="152" y="72" width="8" height="8" class="solid filled" rx="0"></rect><rect x="160" y="64" width="8" height="16" class="solid filled" rx="0"></rect><rect x="168" y="64" width="8" height="16" class="solid filled" rx="0"></rect><rect x="176" y="64" width="8" height="16" class="solid filled" rx="0"></rect><rect x="184" y="72" width="8" height="8" class="solid filled" rx="0"></rect><rect x="192" y="72" width="8" height="8" class="solid filled" rx="0"></rect><rect x="200" y="72" width="8" height="8" class="solid filled" rx="0"></rect><rect x="208" y="72" width="8" height="8" class="solid filled" rx="0"></rect><rect x="216" y="64" width="8" height="16" class="solid filled" rx="0"></rect><rect x="224" y="64" width="8" height="16" class="solid filled" rx="0"></rect><text x="234" y="76" >▀</text><rect x="160" y="80" width="8" height="16" class="solid filled" rx="0"></rect><rect x="168" y="80" width="8" height="16" class="solid filled" rx="0"></rect><rect x="176" y="80" width="8" height="16" class="solid filled" rx="0"></rect><text x="146" y="108" >▀</text><rect x="152" y="96" width="8" height="16" class="solid filled" rx="0"></rect><rect x="160" y="96" width="8" height="16" class="solid filled" rx="0"></rect><rect x="168" y="96" width="8" height="16" class="solid filled" rx="0"></rect><rect x="176" y="96" width="8" height="16" class="solid filled" rx="0"></rect><rect x="184" y="96" width="8" height="16" class="solid filled" rx="0"></rect><rect x="192" y="96" width="8" height="16" class="solid filled" rx="0"></rect><rect x="200" y="96" width="8" height="16" class="solid filled" rx="0"></rect><rect x="208" y="96" width="8" height="16" class="solid filled" rx="0"></rect><rect x="216" y="96" width="8" height="16" class="solid filled" rx="0"></rect><rect x="224" y="96" width="8" height="16" class="solid filled" rx="0"></rect><rect x="232" y="96" width="8" height="16" class="solid filled" rx="0"></rect><rect x="160" y="112" width="8" height="16" class="solid filled" rx="0"></rect><rect x="168" y="112" width="8" height="16" class="solid filled" rx="0"></rect><rect x="176" y="112" width="8" height="16" class="solid filled" rx="0"></rect><rect x="216" y="112" width="8" height="16" class="solid filled" rx="0"></rect><rect x="224" y="112" width="8" height="16" class="solid filled" rx="0"></rect><rect x="232" y="112" width="8" height="16" class="solid filled" rx="0"></rect><rect x="160" y="128" width="8" height="16" class="solid filled" rx="0"></rect><rect x="168" y="128" width="8" height="16" class="solid filled" rx="0"></rect><rect x="176" y="128" width="8" height="16" class="solid filled" rx="0"></rect><rect x="216" y="128" width="8" height="16" class="solid filled" rx="0"></rect><rect x="224" y="128" width="8" height="16" class="solid filled" rx="0"></rect><rect x="232" y="128" width="8" height="16" class="solid filled" rx="0"></rect><rect x="160" y="144" width="8" height="16" class="solid filled" rx="0"></rect><rect x="168" y="144" width="8" height="16" class="solid filled" rx="0"></rect><rect x="176" y="144" width="8" height="16" class="solid filled" rx="0"></rect><rect x="216" y="144" width="8" height="16" class="solid filled" rx="0"></rect><rect x="224" y="144" width="8" height="16" class="solid filled" rx="0"></rect><rect x="232" y="144" width="8" height="16" class="solid filled" rx="0"></rect><rect x="256" y="24" width="8" height="8" class="solid filled" rx="0"></rect><rect x="264" y="16" width="8" height="16" class="solid filled" rx="0"></rect><rect x="272" y="16" width="8" height="16" class="solid filled" rx="0"></rect><rect x="280" y="16" width="8" height="16" class="solid filled" rx="0"></rect><rect x="288" y="16" width="8" height="16" class="solid filled" rx="0"></rect><rect x="296" y="16" width="8" height="16" class="solid filled" rx="0"></rect><rect x="304" y="16" width="8" height="16" class="solid filled" rx="0"></rect><rect x="312" y="16" width="8" height="16" class="solid filled" rx="0"></rect><rect x="320" y="16" width="8" height="16" class="solid filled" rx="0"></rect><rect x="248" y="32" width="8" height="16" class="solid filled" rx="0"></rect><rect x="256" y="32" width="8" height="16" class="solid filled" rx="0"></rect><rect x="264" y="32" width="8" height="16" class="solid filled" rx="0"></rect><rect x="304" y="32" width="8" height="16" class="solid filled" rx="0"></rect><rect x="312" y="32" width="8" height="16" class="solid filled" rx="0"></rect><rect x="320" y="32" width="8" height="16" class="solid filled" rx="0"></rect><rect x="248" y="48" width="8" height="16" class="solid filled" rx="0"></rect><rect x="256" y="48" width="8" height="16" class="solid filled" rx="0"></rect><rect x="264" y="48" width="8" height="16" class="solid filled" rx="0"></rect><rect x="304" y="48" width="8" height="16" class="solid filled" rx="0"></rect><text x="314" y="60" >▀</text><rect x="248" y="64" width="8" height="16" class="solid filled" rx="0"></rect><rect x="256" y="64" width="8" height="16" class="solid filled" rx="0"></rect><rect x="264" y="64" width="8" height="16" class="solid filled" rx="0"></rect><rect x="248" y="80" width="8" height="16" class="solid filled" rx="0"></rect><rect x="256" y="80" width="8" height="16" class="solid filled" rx="0"></rect><rect x="264" y="80" width="8" height="16" class="solid filled" rx="0"></rect><rect x="248" y="96" width="8" height="16" class="solid filled" rx="0"></rect><rect x="256" y="96" width="8" height="16" class="solid filled" rx="0"></rect><rect x="264" y="96" width="8" height="16" class="solid filled" rx="0"></rect><rect x="304" y="96" width="8" height="16" class="solid filled" rx="0"></rect><rect x="312" y="104" width="8" height="8" class="solid filled" rx="0"></rect><rect x="248" y="112" width="8" height="16" class="solid filled" rx="0"></rect><rect x="256" y="112" width="8" height="16" class="solid filled" rx="0"></rect><rect x="264" y="112" width="8" height="16" class="solid filled" rx="0"></rect><rect x="304" y="112" width="8" height="16" class="solid filled" rx="0"></rect><rect x="312" y="112" width="8" height="16" class="solid filled" rx="0"></rect><rect x="320" y="112" width="8" height="16" class="solid filled" rx="0"></rect><rect x="248" y="128" width="8" height="16" class="solid filled" rx="0"></rect><rect x="256" y="128" width="8" height="16" class="solid filled" rx="0"></rect><rect x="264" y="128" width="8" height="16" class="solid filled" rx="0"></rect><rect x="272" y="128" width="8" height="16" class="solid filled" rx="0"></rect><rect x="280" y="128" width="8" height="16" class="solid filled" rx="0"></rect><rect x="288" y="128" width="8" height="16" class="solid filled" rx="0"></rect><rect x="296" y="128" width="8" height="16" class="solid filled" rx="0"></rect><rect x="304" y="128" width="8" height="16" class="solid filled" rx="0"></rect><text x="314" y="140" >▀</text><rect x="360" y="24" width="8" height="8" class="solid filled" rx="0"></rect><rect x="368" y="16" width="8" height="16" class="solid filled" rx="0"></rect><rect x="408" y="16" width="8" height="16" class="solid filled" rx="0"></rect><rect x="416" y="24" width="8" height="8" class="solid filled" rx="0"></rect><rect x="352" y="32" width="8" height="16" class="solid filled" rx="0"></rect><rect x="360" y="32" width="8" height="16" class="solid filled" rx="0"></rect><rect x="368" y="32" width="8" height="16" class="solid filled" rx="0"></rect><rect x="408" y="32" width="8" height="16" class="solid filled" rx="0"></rect><rect x="416" y="32" width="8" height="16" class="solid filled" rx="0"></rect><rect x="424" y="32" width="8" height="16" class="solid filled" rx="0"></rect><rect x="352" y="48" width="8" height="16" class="solid filled" rx="0"></rect><rect x="360" y="48" width="8" height="16" class="solid filled" rx="0"></rect><rect x="368" y="48" width="8" height="16" class="solid filled" rx="0"></rect><rect x="408" y="48" width="8" height="16" class="solid filled" rx="0"></rect><rect x="416" y="48" width="8" height="16" class="solid filled" rx="0"></rect><rect x="424" y="48" width="8" height="16" class="solid filled" rx="0"></rect><rect x="344" y="72" width="8" height="8" class="solid filled" rx="0"></rect><rect x="352" y="64" width="8" height="16" class="solid filled" rx="0"></rect><rect x="360" y="64" width="8" height="16" class="solid filled" rx="0"></rect><rect x="368" y="64" width="8" height="16" class="solid filled" rx="0"></rect><rect x="376" y="72" width="8" height="8" class="solid filled" rx="0"></rect><rect x="384" y="72" width="8" height="8" class="solid filled" rx="0"></rect><rect x="392" y="72" width="8" height="8" class="solid filled" rx="0"></rect><rect x="400" y="72" width="8" height="8" class="solid filled" rx="0"></rect><rect x="408" y="64" width="8" height="16" class="solid filled" rx="0"></rect><rect x="416" y="64" width="8" height="16" class="solid filled" rx="0"></rect><rect x="424" y="64" width="8" height="16" class="solid filled" rx="0"></rect><rect x="432" y="72" width="8" height="8" class="solid filled" rx="0"></rect><rect x="440" y="72" width="8" height="8" class="solid filled" rx="0"></rect><rect x="352" y="80" width="8" height="16" class="solid filled" rx="0"></rect><rect x="360" y="80" width="8" height="16" class="solid filled" rx="0"></rect><rect x="368" y="80" width="8" height="16" class="solid filled" rx="0"></rect><rect x="408" y="80" width="8" height="16" class="solid filled" rx="0"></rect><rect x="416" y="80" width="8" height="16" class="solid filled" rx="0"></rect><rect x="424" y="80" width="8" height="16" class="solid filled" rx="0"></rect><text x="434" y="92" >▀</text><rect x="352" y="96" width="8" height="16" class="solid filled" rx="0"></rect><rect x="360" y="96" width="8" height="16" class="solid filled" rx="0"></rect><rect x="368" y="96" width="8" height="16" class="solid filled" rx="0"></rect><rect x="408" y="96" width="8" height="16" class="solid filled" rx="0"></rect><rect x="416" y="96" width="8" height="16" class="solid filled" rx="0"></rect><rect x="424" y="96" width="8" height="16" class="solid filled" rx="0"></rect><rect x="352" y="112" width="8" height="16" class="solid filled" rx="0"></rect><rect x="360" y="112" width="8" height="16" class="solid filled" rx="0"></rect><rect x="368" y="112" width="8" height="16" class="solid filled" rx="0"></rect><rect x="408" y="112" width="8" height="16" class="solid filled" rx="0"></rect><rect x="416" y="112" width="8" height="16" class="solid filled" rx="0"></rect><rect x="424" y="112" width="8" height="16" class="solid filled" rx="0"></rect><rect x="352" y="128" width="8" height="16" class="solid filled" rx="0"></rect><rect x="360" y="128" width="8" height="16" class="solid filled" rx="0"></rect><rect x="368" y="128" width="8" height="16" class="solid filled" rx="0"></rect><rect x="408" y="128" width="8" height="16" class="solid filled" rx="0"></rect><text x="418" y="140" >▀</text><rect x="456" y="24" width="8" height="8" class="solid filled" rx="0"></rect><rect x="464" y="16" width="8" height="16" class="solid filled" rx="0"></rect><rect x="472" y="16" width="8" height="16" class="solid filled" rx="0"></rect><rect x="504" y="24" width="8" height="8" class="solid filled" rx="0"></rect><rect x="456" y="32" width="8" height="16" class="solid filled" rx="0"></rect><rect x="464" y="32" width="8" height="16" class="solid filled" rx="0"></rect><rect x="472" y="32" width="8" height="16" class="solid filled" rx="0"></rect><rect x="504" y="32" width="8" height="16" class="solid filled" rx="0"></rect><rect x="512" y="32" width="8" height="16" class="solid filled" rx="0"></rect><rect x="520" y="40" width="8" height="8" class="solid filled" rx="0"></rect><rect x="456" y="48" width="8" height="16" class="solid filled" rx="0"></rect><rect x="464" y="48" width="8" height="16" class="solid filled" rx="0"></rect><rect x="472" y="48" width="8" height="16" class="solid filled" rx="0"></rect><rect x="480" y="56" width="8" height="8" class="solid filled" rx="0"></rect><rect x="488" y="56" width="8" height="8" class="solid filled" rx="0"></rect><rect x="496" y="56" width="8" height="8" class="solid filled" rx="0"></rect><rect x="504" y="48" width="8" height="16" class="solid filled" rx="0"></rect><rect x="512" y="48" width="8" height="16" class="solid filled" rx="0"></rect><rect x="520" y="48" width="8" height="16" class="solid filled" rx="0"></rect><rect x="504" y="64" width="8" height="16" class="solid filled" rx="0"></rect><rect x="512" y="64" width="8" height="16" class="solid filled" rx="0"></rect><rect x="520" y="64" width="8" height="16" class="solid filled" rx="0"></rect><rect x="456" y="88" width="8" height="8" class="solid filled" rx="0"></rect><rect x="464" y="80" width="8" height="16" class="solid filled" rx="0"></rect><rect x="472" y="80" width="8" height="16" class="solid filled" rx="0"></rect><rect x="504" y="80" width="8" height="16" class="solid filled" rx="0"></rect><rect x="512" y="80" width="8" height="16" class="solid filled" rx="0"></rect><rect x="520" y="80" width="8" height="16" class="solid filled" rx="0"></rect><rect x="456" y="96" width="8" height="16" class="solid filled" rx="0"></rect><rect x="464" y="96" width="8" height="16" class="solid filled" rx="0"></rect><rect x="472" y="96" width="8" height="16" class="solid filled" rx="0"></rect><rect x="504" y="96" width="8" height="16" class="solid filled" rx="0"></rect><rect x="512" y="96" width="8" height="16" class="solid filled" rx="0"></rect><rect x="520" y="96" width="8" height="16" class="solid filled" rx="0"></rect><rect x="456" y="112" width="8" height="16" class="solid filled" rx="0"></rect><rect x="464" y="112" width="8" height="16" class="solid filled" rx="0"></rect><rect x="472" y="112" width="8" height="16" class="solid filled" rx="0"></rect><rect x="504" y="112" width="8" height="16" class="solid filled" rx="0"></rect><rect x="512" y="112" width="8" height="16" class="solid filled" rx="0"></rect><rect x="520" y="112" width="8" height="16" class="solid filled" rx="0"></rect><text x="466" y="140" >▀</text><rect x="472" y="128" width="8" height="16" class="solid filled" rx="0"></rect><rect x="480" y="128" width="8" height="16" class="solid filled" rx="0"></rect><rect x="488" y="128" width="8" height="16" class="solid filled" rx="0"></rect><rect x="496" y="128" width="8" height="16" class="solid filled" rx="0"></rect><rect x="504" y="128" width="8" height="16" class="solid filled" rx="0"></rect><text x="514" y="140" >▀</text><g><text x="146" y="92">▀</text><text x="154" y="92">▀</text></g><g><text x="186" y="92">▀▀</text><text x="194" y="92">▀▀</text><text x="202" y="92">▀</text></g><g><text x="338" y="92">▀</text><text x="346" y="92">▀</text></g><g><text x="378" y="92">▀▀</text><text x="386" y="92">▀</text><text x="394" y="92">▀</text></g><g><text x="458" y="76">▀▀</text><text x="466" y="76">▀▀</text><text x="474" y="76">▀▀</text></g></svg>
